<svg width="512" height="512" viewBox="0 0 512 512" style="color:#000000" xmlns="http://www.w3.org/2000/svg" class="h-full w-full"><rect width="512" height="512" x="0" y="0" rx="30" fill="transparent" stroke="transparent" stroke-width="0" stroke-opacity="100%" paint-order="stroke"></rect><svg width="256px" height="256px" viewBox="0 0 24 24" fill="#000000" x="128" y="128" role="img" style="display:inline-block;vertical-align:middle" xmlns="http://www.w3.org/2000/svg"><g fill="#000000"><path fill="currentColor" d="M18 10.998h-5v5a1 1 0 0 1-2 0v-5H6a1 1 0 0 1 0-2h5v-5a1 1 0 0 1 2 0v5h5a1 1 0 0 1 0 2zm0 10H6a1 1 0 0 1 0-2h12a1 1 0 0 1 0 2z"/></g></svg></svg>